General
Complete name                    : D:\TOORENT FOR UPLOAD\Vacancy 2007 BRRip Hindi - English by RoY StaR\Vacancy 2007 BRRip Hindi - English by RoY StaR.m4v
Format                           : MPEG-4
Format profile                   : Base Media / Version 2
Codec ID                         : mp42
File size                        : 663 MiB
Duration                         : 1h 25mn
Overall bit rate                 : 1 090 Kbps
Encoded date                     : UTC 2011-08-02 06:12:47
Tagged date                      : UTC 2011-08-02 08:22:10
Writing application              : HandBrake 0.9.5 2011010300

Video
ID                               : 1
Format                           : AVC
Format/Info                      : Advanced Video Codec
Format profile                   : High@L3.0
Format settings, CABAC           : Yes
Format settings, ReFrames        : 4 frames
Format settings, GOP             : M=4, N=57
Codec ID                         : avc1
Codec ID/Info                    : Advanced Video Coding
Duration                         : 1h 25mn
Bit rate mode                    : Variable
Bit rate                         : 880 Kbps
Width                            : 852 pixels
Height                           : 480 pixels
Display aspect ratio             : 16:9
Frame rate mode                  : Variable
Frame rate                       : 23.976 fps
Minimum frame rate               : 14.286 fps
Maximum frame rate               : 24.390 fps
Color space                      : YUV
Chroma subsampling               : 4:2:0
Bit depth                        : 8 bits
Scan type                        : Progressive
Bits/(Pixel*Frame)               : 0.090
Stream size                      : 536 MiB (81%)
Writing library                  : x264 core 112

Encoded date                     : UTC 2011-08-02 06:12:47
Tagged date                      : UTC 2011-08-02 08:22:10
Color primaries                  : BT.709-5, BT.1361, IEC 61966-2-4, SMPTE RP177
Transfer characteristics         : BT.709-5, BT.1361
Matrix coefficients              : BT.709-5, BT.1361, IEC 61966-2-4 709, SMPTE RP177

Audio #1
ID                               : 2
Format                           : AAC
Format/Info                      : Advanced Audio Codec
Format profile                   : LC
Codec ID                         : 40
Duration                         : 1h 21mn
Bit rate mode                    : Variable
Bit rate                         : 112 Kbps
Maximum bit rate                 : 221 Kbps
Channel(s)                       : 2 channels
Channel positions                : Front: L R
Sampling rate                    : 44.1 KHz
Compression mode                 : Lossy
Stream size                      : 65.1 MiB (10%)
Language                         : Hindi
Encoded date                     : UTC 2011-08-02 06:12:47
Tagged date                      : UTC 2011-08-02 08:22:09

Audio #2
ID                               : 3
Format                           : AAC
Format/Info                      : Advanced Audio Codec
Format profile                   : LC
Codec ID                         : 40
Duration                         : 1h 25mn
Bit rate mode                    : Variable
Bit rate                         : 96.0 Kbps
Maximum bit rate                 : 120 Kbps
Channel(s)                       : 2 channels
Channel positions                : Front: L R
Sampling rate                    : 44.1 KHz
Compression mode                 : Lossy
Stream size                      : 58.4 MiB (9%)
Language                         : English
Encoded date                     : UTC 2011-08-02 06:12:47
Tagged date                      : UTC 2011-08-02 08:22:10

Text
ID                               : 4
Format                           : Timed text
Muxing mode                      : sbtl
Codec ID                         : tx3g
Duration                         : 1h 20mn
Bit rate mode                    : Variable
Bit rate                         : 44 bps
Stream size                      : 26.0 KiB (0%)
Language                         : English
Encoded date                     : UTC 2011-08-02 06:12:47
Tagged date                      : UTC 2011-08-02 08:18:07

A young married couple becomes stranded at an isolated motel and finds hidden video cameras in their room. They realize that unless they escape, they'll be the next victims of a snuff film